<svg width="583" height="623" viewBox="0 0 583 623" fill="none" xmlns="http://www.w3.org/2000/svg">
<g filter="url(#filter0_d_27_648)">
<rect x="79" y="75" width="425" height="465" rx="27" fill="#161616"/>
<rect x="79.5" y="75.5" width="424" height="464" rx="26.5" stroke="#4E4E4E"/>
</g>
<g filter="url(#filter1_d_27_648)">
<rect x="120.187" y="137.406" width="56" height="56" rx="16" fill="white"/>
<rect x="120.687" y="137.906" width="55" height="55" rx="15.5" stroke="white"/>
</g>
<path d="M132.288 149.444H163.399V180.555H132.288V149.444Z" fill="#017ACB"/>
<path d="M147.226 160.965H148.719V163.542H144.684V175.004L144.577 175.033C144.431 175.072 142.511 175.072 142.098 175.028L141.767 174.999V163.542H137.732V160.965L139.011 160.951C139.711 160.941 141.51 160.941 143.007 160.951C144.504 160.96 146.4 160.965 147.226 160.965ZM158.616 173.789C158.023 174.416 157.386 174.766 156.326 175.053C155.864 175.179 155.787 175.184 154.746 175.179C153.706 175.174 153.623 175.174 153.118 175.043C151.81 174.708 150.755 174.051 150.036 173.123C149.832 172.86 149.496 172.316 149.496 172.248C149.496 172.228 149.545 172.185 149.608 172.155C149.671 172.126 149.803 172.044 149.91 171.98C150.017 171.917 150.211 171.801 150.342 171.733C150.473 171.665 150.853 171.441 151.183 171.242C151.514 171.042 151.815 170.882 151.849 170.882C151.883 170.882 151.946 170.95 151.995 171.033C152.287 171.524 152.967 172.151 153.448 172.365C153.745 172.491 154.401 172.632 154.717 172.632C155.009 172.632 155.544 172.505 155.83 172.374C156.137 172.233 156.292 172.092 156.477 171.81C156.603 171.611 156.618 171.558 156.613 171.178C156.613 170.828 156.594 170.731 156.496 170.571C156.224 170.124 155.855 169.89 154.358 169.229C152.812 168.544 152.117 168.135 151.553 167.586C151.135 167.178 151.052 167.066 150.789 166.555C150.449 165.899 150.405 165.685 150.401 164.708C150.396 164.023 150.41 163.799 150.483 163.566C150.585 163.216 150.916 162.54 151.067 162.37C151.378 162.005 151.489 161.894 151.708 161.714C152.369 161.169 153.4 160.81 154.387 160.776C154.498 160.776 154.868 160.795 155.213 160.819C156.205 160.902 156.88 161.145 157.532 161.665C158.023 162.054 158.767 162.968 158.694 163.09C158.645 163.162 156.705 164.455 156.579 164.494C156.501 164.519 156.448 164.49 156.341 164.363C155.68 163.571 155.412 163.401 154.771 163.362C154.314 163.333 154.071 163.386 153.764 163.59C153.444 163.804 153.288 164.13 153.288 164.582C153.293 165.243 153.546 165.554 154.479 166.016C155.082 166.312 155.597 166.555 155.636 166.555C155.694 166.555 156.944 167.178 157.269 167.372C158.786 168.262 159.403 169.176 159.564 170.751C159.68 171.937 159.345 173.021 158.616 173.789Z" fill="white"/>
<rect x="189.844" y="137" width="56.3129" height="56" rx="16" fill="white"/>
<path d="M218 167.743C219.523 167.743 220.758 166.515 220.758 165C220.758 163.485 219.523 162.257 218 162.257C216.477 162.257 215.242 163.485 215.242 165C215.242 166.515 216.477 167.743 218 167.743Z" fill="#61DAFB"/>
<path fill-rule="evenodd" clip-rule="evenodd" d="M205.031 163.557C204.406 164.118 204.2 164.608 204.2 165C204.2 165.392 204.406 165.882 205.031 166.443C205.656 167.004 206.617 167.555 207.89 168.039C210.428 169.003 214.002 169.62 218 169.62C221.997 169.62 225.572 169.003 228.11 168.039C229.383 167.555 230.344 167.004 230.969 166.443C231.594 165.882 231.8 165.392 231.8 165C231.8 164.608 231.594 164.118 230.969 163.557C230.344 162.996 229.383 162.445 228.11 161.961C225.572 160.998 221.997 160.381 218 160.381C214.002 160.381 210.428 160.998 207.89 161.961C206.617 162.445 205.656 162.996 205.031 163.557ZM207.18 160.092C209.998 159.022 213.824 158.381 218 158.381C222.176 158.381 226.002 159.022 228.82 160.092C230.226 160.625 231.432 161.285 232.305 162.069C233.177 162.852 233.8 163.84 233.8 165C233.8 166.16 233.177 167.148 232.305 167.932C231.432 168.715 230.226 169.375 228.82 169.908C226.002 170.979 222.176 171.62 218 171.62C213.824 171.62 209.998 170.979 207.18 169.908C205.774 169.375 204.568 168.715 203.695 167.932C202.823 167.148 202.2 166.16 202.2 165C202.2 163.84 202.823 162.852 203.695 162.069C204.568 161.285 205.774 160.625 207.18 160.092Z" fill="#61DAFB"/>
<path fill-rule="evenodd" clip-rule="evenodd" d="M212.78 153.112C211.98 152.854 211.448 152.921 211.102 153.119C210.756 153.318 210.433 153.742 210.257 154.561C210.081 155.379 210.081 156.482 210.296 157.818C210.726 160.485 211.975 163.87 213.973 167.312C215.972 170.754 218.295 173.522 220.402 175.225C221.459 176.079 222.419 176.631 223.219 176.888C224.02 177.146 224.552 177.08 224.898 176.881C225.244 176.683 225.567 176.258 225.743 175.439C225.919 174.621 225.919 173.519 225.703 172.182C225.274 169.515 224.025 166.13 222.027 162.688C220.028 159.247 217.705 156.478 215.597 154.775C214.541 153.921 213.581 153.369 212.78 153.112ZM216.858 153.226C219.2 155.119 221.672 158.095 223.761 161.692C225.85 165.29 227.205 168.907 227.682 171.87C227.92 173.348 227.949 174.718 227.703 175.862C227.457 177.006 226.908 178.033 225.902 178.611C224.896 179.188 223.727 179.148 222.607 178.787C221.488 178.427 220.31 177.718 219.142 176.774C216.8 174.881 214.328 171.905 212.239 168.308C210.15 164.71 208.795 161.093 208.318 158.13C208.079 156.652 208.051 155.282 208.297 154.138C208.543 152.994 209.092 151.967 210.098 151.389C211.104 150.812 212.273 150.853 213.392 151.213C214.512 151.573 215.69 152.282 216.858 153.226Z" fill="#61DAFB"/>
<path fill-rule="evenodd" clip-rule="evenodd" d="M225.743 154.561C225.567 153.742 225.244 153.318 224.898 153.119C224.552 152.92 224.02 152.854 223.219 153.112C222.419 153.369 221.459 153.921 220.402 154.775C218.295 156.478 215.972 159.247 213.973 162.688C211.975 166.13 210.726 169.515 210.296 172.182C210.081 173.519 210.081 174.621 210.257 175.439C210.433 176.258 210.756 176.683 211.102 176.881C211.448 177.08 211.98 177.146 212.78 176.888C213.581 176.631 214.541 176.079 215.597 175.225C217.705 173.522 220.028 170.753 222.027 167.312C224.025 163.87 225.274 160.485 225.703 157.818C225.919 156.482 225.919 155.379 225.743 154.561ZM227.682 158.13C227.205 161.093 225.85 164.71 223.761 168.308C221.672 171.905 219.2 174.881 216.858 176.774C215.69 177.718 214.512 178.427 213.392 178.787C212.273 179.147 211.104 179.188 210.098 178.611C209.092 178.033 208.543 177.006 208.297 175.862C208.051 174.718 208.079 173.348 208.318 171.87C208.795 168.907 210.15 165.29 212.239 161.692C214.328 158.095 216.8 155.119 219.142 153.226C220.31 152.282 221.488 151.573 222.607 151.213C223.727 150.853 224.896 150.812 225.902 151.389C226.908 151.967 227.457 152.994 227.703 154.138C227.949 155.282 227.92 156.652 227.682 158.13Z" fill="#61DAFB"/>
<rect x="260.156" y="137" width="56.3129" height="56" rx="16" fill="white"/>
<path d="M301.487 173.476C299.785 173.434 298.466 173.605 297.359 174.078C297.04 174.207 296.529 174.207 296.487 174.615C296.657 174.787 296.678 175.066 296.827 175.302C297.083 175.732 297.529 176.312 297.934 176.613C298.38 176.956 298.827 177.3 299.295 177.6C300.125 178.116 301.062 178.417 301.87 178.932C302.338 179.233 302.806 179.619 303.274 179.942C303.508 180.113 303.657 180.393 303.955 180.5V180.436C303.806 180.242 303.764 179.963 303.615 179.748C303.402 179.533 303.189 179.34 302.976 179.125C302.359 178.288 301.593 177.557 300.764 176.956C300.083 176.484 298.593 175.839 298.317 175.044C298.317 175.044 298.295 175.023 298.274 175.002C298.742 174.959 299.295 174.787 299.742 174.658C300.466 174.464 301.125 174.508 301.87 174.314C302.21 174.228 302.551 174.121 302.891 174.013V173.82C302.509 173.434 302.232 172.918 301.828 172.553C300.742 171.608 299.551 170.684 298.317 169.911C297.657 169.481 296.806 169.202 296.104 168.837C295.849 168.708 295.423 168.644 295.274 168.429C294.891 167.957 294.678 167.334 294.402 166.775C293.785 165.594 293.189 164.284 292.657 163.038C292.274 162.2 292.04 161.363 291.572 160.589C289.38 156.938 286.997 154.726 283.337 152.556C282.55 152.105 281.614 151.912 280.614 151.676C280.082 151.654 279.55 151.611 279.018 151.59C278.677 151.439 278.337 151.031 278.039 150.838C276.826 150.065 273.698 148.39 272.805 150.602C272.23 151.998 273.656 153.372 274.145 154.081C274.507 154.575 274.975 155.134 275.23 155.692C275.379 156.057 275.422 156.444 275.571 156.831C275.911 157.775 276.23 158.828 276.677 159.709C276.911 160.16 277.167 160.632 277.465 161.04C277.635 161.277 277.933 161.384 277.997 161.771C277.699 162.2 277.677 162.845 277.507 163.382C276.741 165.809 277.039 168.816 278.124 170.598C278.464 171.135 279.273 172.317 280.358 171.866C281.316 171.479 281.103 170.255 281.379 169.181C281.444 168.923 281.401 168.751 281.529 168.579V168.622C281.826 169.224 282.124 169.804 282.401 170.405C283.061 171.457 284.209 172.553 285.167 173.283C285.678 173.67 286.082 174.336 286.72 174.572V174.507H286.678C286.55 174.314 286.358 174.228 286.188 174.078C285.805 173.691 285.38 173.219 285.082 172.789C284.188 171.586 283.401 170.255 282.699 168.88C282.358 168.214 282.06 167.484 281.784 166.818C281.656 166.56 281.656 166.174 281.443 166.045C281.124 166.517 280.656 166.926 280.422 167.505C280.018 168.429 279.975 169.567 279.826 170.749C279.741 170.77 279.784 170.749 279.741 170.792C279.06 170.62 278.826 169.911 278.571 169.31C277.932 167.785 277.826 165.336 278.379 163.575C278.528 163.124 279.167 161.706 278.911 161.277C278.784 160.869 278.358 160.632 278.124 160.31C277.848 159.902 277.55 159.387 277.358 158.936C276.847 157.733 276.592 156.401 276.039 155.198C275.784 154.64 275.337 154.06 274.975 153.544C274.571 152.965 274.124 152.556 273.805 151.869C273.698 151.633 273.549 151.246 273.72 150.988C273.762 150.817 273.847 150.752 274.017 150.709C274.294 150.473 275.082 150.774 275.358 150.903C276.145 151.225 276.805 151.525 277.465 151.976C277.762 152.191 278.082 152.599 278.464 152.707H278.911C279.592 152.857 280.358 152.75 280.997 152.943C282.124 153.308 283.146 153.845 284.061 154.425C286.848 156.208 289.146 158.742 290.699 161.771C290.955 162.264 291.061 162.716 291.295 163.231C291.742 164.284 292.295 165.358 292.742 166.389C293.189 167.398 293.614 168.429 294.253 169.267C294.572 169.718 295.848 169.954 296.423 170.19C296.848 170.384 297.508 170.556 297.891 170.792C298.615 171.243 299.338 171.758 300.019 172.252C300.359 172.51 301.423 173.047 301.487 173.476Z" fill="#00546B"/>
<path d="M279.784 154.812C279.422 154.812 279.167 154.855 278.911 154.919V154.962H278.954C279.124 155.306 279.422 155.542 279.635 155.843C279.805 156.186 279.954 156.53 280.124 156.874C280.145 156.852 280.167 156.831 280.167 156.831C280.465 156.616 280.613 156.272 280.613 155.757C280.486 155.606 280.465 155.456 280.358 155.306C280.231 155.091 279.954 154.983 279.784 154.812Z" fill="#00546B"/>
<rect x="330.469" y="137" width="56.3129" height="56" rx="16" fill="white"/>
<path d="M358.528 149.529L359.363 151.089C359.55 151.376 359.754 151.631 359.993 151.868C360.695 152.558 361.35 153.294 361.952 154.071C363.367 155.918 364.321 157.97 365.002 160.188C365.411 161.543 365.633 162.933 365.65 164.339C365.718 168.542 364.269 172.15 361.348 175.149C360.873 175.625 360.36 176.061 359.813 176.454C359.524 176.454 359.387 176.233 359.268 176.03C359.051 175.653 358.906 175.24 358.842 174.81C358.739 174.302 358.672 173.793 358.705 173.268V173.031C358.681 172.98 358.426 149.649 358.528 149.529Z" fill="#599636"/>
<path d="M358.528 149.478C358.494 149.41 358.459 149.461 358.425 149.494C358.442 149.835 358.323 150.138 358.136 150.428C357.931 150.715 357.659 150.936 357.386 151.173C355.871 152.478 354.678 154.054 353.723 155.816C352.452 158.188 351.797 160.73 351.611 163.407C351.526 164.372 351.918 167.779 352.224 168.761C353.059 171.371 354.559 173.557 356.501 175.455C356.978 175.912 357.489 176.335 358.017 176.743C358.17 176.743 358.187 176.607 358.222 176.506C358.289 176.289 358.34 176.068 358.375 175.844L358.717 173.303L358.528 149.478Z" fill="#6CAC48"/>
<path d="M359.363 177.486C359.397 177.098 359.585 176.775 359.789 176.453C359.584 176.368 359.431 176.2 359.312 176.013C359.209 175.835 359.124 175.648 359.058 175.454C358.819 174.742 358.768 173.995 358.7 173.268V172.828C358.615 172.896 358.597 173.471 358.597 173.557C358.547 174.326 358.445 175.09 358.29 175.844C358.239 176.15 358.205 176.454 358.016 176.725C358.016 176.759 358.016 176.793 358.033 176.844C358.34 177.742 358.424 178.657 358.476 179.589V179.929C358.476 180.336 358.459 180.25 358.799 180.386C358.935 180.437 359.088 180.454 359.225 180.555C359.327 180.555 359.344 180.471 359.344 180.403L359.293 179.844V178.285C359.277 178.012 359.327 177.742 359.362 177.487L359.363 177.486Z" fill="#C2BFBF"/>
<g filter="url(#filter2_d_27_648)">
<rect x="400.749" y="136.909" width="57" height="55" rx="16" fill="white"/>
<rect x="401.249" y="137.409" width="56" height="54" rx="15.5" stroke="white"/>
</g>
<path d="M427.986 149.548C428.771 149.114 429.793 149.113 430.578 149.548C434.525 151.7 438.473 153.849 442.419 156.002C443.161 156.405 443.658 157.202 443.65 158.027V170.974C443.656 171.833 443.11 172.65 442.327 173.044C438.393 175.184 434.461 177.327 430.528 179.467C429.727 179.909 428.684 179.875 427.907 179.396C426.728 178.737 425.546 178.08 424.367 177.421C424.126 177.282 423.854 177.172 423.684 176.947C423.835 176.751 424.104 176.727 424.322 176.641C424.814 176.49 425.267 176.248 425.719 176.012C425.833 175.937 425.973 175.966 426.082 176.033C427.091 176.591 428.09 177.165 429.102 177.718C429.318 177.838 429.537 177.679 429.721 177.579C433.582 175.474 437.447 173.377 441.306 171.271C441.449 171.205 441.528 171.058 441.517 170.907C441.519 166.636 441.517 162.365 441.518 158.094C441.534 157.922 441.432 157.765 441.271 157.694C437.351 155.564 433.433 153.431 429.513 151.3C429.445 151.255 429.365 151.231 429.282 151.231C429.2 151.23 429.119 151.254 429.051 151.299C425.132 153.431 421.214 155.566 417.295 157.696C417.135 157.767 417.027 157.922 417.046 158.094C417.047 162.365 417.046 166.636 417.046 170.908C417.039 170.981 417.056 171.055 417.094 171.12C417.132 171.184 417.19 171.235 417.259 171.267C418.305 171.839 419.353 172.408 420.399 172.978C420.989 173.284 421.713 173.466 422.362 173.232C422.936 173.033 423.338 172.469 423.327 171.881C423.332 167.636 423.324 163.389 423.331 159.144C423.316 158.955 423.502 158.8 423.692 158.817C424.194 158.814 424.697 158.811 425.2 158.819C425.41 158.814 425.554 159.017 425.528 159.207C425.526 163.48 425.533 167.753 425.525 172.025C425.526 173.164 425.041 174.403 423.95 174.96C422.605 175.633 420.943 175.49 419.614 174.845C418.464 174.292 417.366 173.638 416.237 173.044C415.451 172.652 414.909 171.833 414.914 170.974V158.027C414.906 157.185 415.422 156.374 416.187 155.976C420.121 153.834 424.053 151.691 427.986 149.548Z" fill="#8CC84B"/>
<path d="M431.417 158.516C433.132 158.41 434.969 158.453 436.512 159.269C437.708 159.893 438.37 161.205 438.391 162.486C438.358 162.659 438.171 162.754 438 162.742C437.502 162.742 437.004 162.749 436.506 162.739C436.295 162.747 436.173 162.559 436.146 162.379C436.003 161.766 435.657 161.159 435.059 160.863C434.141 160.42 433.076 160.442 432.075 160.451C431.345 160.489 430.559 160.55 429.94 160.964C429.465 161.279 429.32 161.913 429.49 162.423C429.65 162.79 430.088 162.908 430.447 163.017C432.515 163.539 434.705 163.487 436.733 164.173C437.573 164.453 438.394 164.997 438.681 165.846C439.057 166.982 438.892 168.341 438.054 169.254C437.374 170.005 436.384 170.414 435.397 170.636C434.083 170.918 432.72 170.925 431.386 170.8C430.132 170.662 428.827 170.344 427.858 169.519C427.03 168.826 426.626 167.745 426.666 166.701C426.676 166.525 426.857 166.402 427.032 166.417C427.533 166.413 428.035 166.411 428.536 166.417C428.736 166.403 428.884 166.57 428.895 166.753C428.987 167.337 429.215 167.95 429.743 168.296C430.761 168.93 432.039 168.887 433.206 168.904C434.172 168.863 435.257 168.85 436.045 168.234C436.461 167.883 436.585 167.295 436.472 166.789C436.35 166.361 435.887 166.162 435.49 166.032C433.449 165.409 431.234 165.635 429.213 164.931C428.392 164.651 427.599 164.122 427.284 163.309C426.844 162.158 427.045 160.734 427.971 159.852C428.874 158.975 430.178 158.637 431.417 158.516V158.516Z" fill="#8CC84B"/>
<rect x="125" y="212" width="56" height="56" rx="16" fill="white"/>
<path d="M147.378 247.184C147.378 247.184 146.178 247.814 148.232 248.027C150.72 248.283 151.991 248.247 154.732 247.778C154.732 247.778 155.453 248.186 156.46 248.54C150.314 250.919 142.551 248.402 147.378 247.184ZM146.627 244.079C146.627 244.079 145.282 244.979 147.337 245.171C149.994 245.418 152.093 245.439 155.724 244.807C155.724 244.807 156.226 245.267 157.016 245.518C149.586 247.481 141.309 245.673 146.627 244.079Z" fill="#5382A1"/>
<path d="M152.958 238.813C154.472 240.387 152.56 241.805 152.56 241.805C152.56 241.805 156.405 240.012 154.639 237.767C152.99 235.673 151.725 234.633 158.572 231.046C158.572 231.046 147.825 233.471 152.958 238.813" fill="#E76F00"/>
<path d="M161.086 249.48C161.086 249.48 161.974 250.141 160.108 250.652C156.561 251.622 145.344 251.915 142.228 250.69C141.108 250.25 143.208 249.64 143.869 249.511C144.558 249.376 144.952 249.402 144.952 249.402C143.706 248.609 136.9 250.958 141.495 251.631C154.025 253.466 164.336 250.804 161.086 249.48ZM147.955 240.863C147.955 240.863 142.249 242.087 145.934 242.531C147.49 242.719 150.592 242.677 153.481 242.458C155.843 242.278 158.214 241.896 158.214 241.896C158.214 241.896 157.381 242.218 156.779 242.589C150.985 243.966 139.792 243.325 143.014 241.917C145.739 240.728 147.955 240.863 147.955 240.863H147.955ZM158.19 246.03C164.08 243.266 161.357 240.609 159.456 240.967C158.99 241.055 158.783 241.13 158.783 241.13C158.783 241.13 158.956 240.886 159.286 240.78C163.046 239.586 165.938 244.302 158.072 246.169C158.072 246.169 158.163 246.096 158.19 246.03Z" fill="#5382A1"/>
<path d="M154.639 225.255C154.639 225.255 157.901 228.202 151.545 232.734C146.449 236.37 150.383 238.442 151.543 240.811C148.568 238.386 146.385 236.252 147.85 234.266C150 231.35 155.955 229.936 154.639 225.255" fill="#E76F00"/>
<path d="M148.534 253.521C154.187 253.848 162.869 253.34 163.075 250.923C163.075 250.923 162.679 251.839 158.402 252.567C153.577 253.387 147.625 253.291 144.095 252.766C144.095 252.766 144.818 253.306 148.534 253.521" fill="#5382A1"/>
<rect x="195" y="211" width="56.3129" height="56" rx="16" fill="white"/>
<path fill-rule="evenodd" clip-rule="evenodd" d="M223.156 246.883C231.796 246.883 238.799 243.354 238.799 239C238.799 234.646 231.796 231.117 223.156 231.117C214.518 231.117 207.514 234.646 207.514 239C207.514 243.354 214.518 246.883 223.156 246.883Z" fill="#6E81B6"/>
<path fill-rule="evenodd" clip-rule="evenodd" d="M226.327 241.548L227.102 237.577C227.278 236.681 227.132 236.012 226.67 235.59C226.222 235.181 225.462 234.982 224.347 234.982H223.003L223.387 233.014C223.394 232.978 223.393 232.94 223.384 232.904C223.375 232.868 223.358 232.834 223.334 232.805C223.31 232.776 223.28 232.753 223.246 232.737C223.212 232.721 223.175 232.713 223.138 232.713H221.283C221.161 232.713 221.057 232.799 221.033 232.918L220.209 237.134C220.134 236.659 219.95 236.252 219.654 235.915C219.11 235.296 218.25 234.982 217.097 234.982H213.502C213.38 234.982 213.276 235.068 213.252 235.187L211.584 243.72C211.57 243.795 211.589 243.871 211.638 243.929C211.686 243.988 211.758 244.022 211.834 244.022H213.703C213.825 244.022 213.93 243.936 213.953 243.817L214.357 241.753H215.748C216.478 241.753 217.092 241.674 217.571 241.519C218.06 241.361 218.511 241.092 218.908 240.722C219.229 240.429 219.494 240.1 219.699 239.746L219.365 241.451C219.351 241.525 219.37 241.602 219.419 241.66C219.467 241.719 219.539 241.752 219.615 241.752H221.47C221.592 241.752 221.696 241.666 221.719 241.548L222.635 236.863H223.907C224.45 236.863 224.609 236.971 224.652 237.017C224.691 237.059 224.772 237.207 224.681 237.675L223.943 241.451C223.936 241.488 223.937 241.525 223.947 241.561C223.956 241.598 223.973 241.631 223.997 241.66C224.021 241.689 224.051 241.712 224.085 241.728C224.118 241.744 224.155 241.752 224.193 241.752H226.077C226.136 241.752 226.193 241.732 226.239 241.695C226.284 241.657 226.315 241.606 226.327 241.548ZM217.728 238.267C217.612 238.862 217.392 239.287 217.076 239.529C216.754 239.775 216.24 239.9 215.547 239.9H214.718L215.317 236.835H216.389C217.175 236.835 217.492 237.002 217.62 237.142C217.796 237.336 217.834 237.726 217.728 238.267ZM234.139 235.915C233.595 235.296 232.734 234.982 231.581 234.982H227.987C227.865 234.982 227.76 235.068 227.737 235.187L226.069 243.72C226.055 243.795 226.074 243.871 226.123 243.929C226.171 243.988 226.243 244.022 226.319 244.022H228.188C228.31 244.022 228.414 243.936 228.438 243.817L228.841 241.753H230.233C230.963 241.753 231.576 241.674 232.055 241.519C232.545 241.361 232.996 241.092 233.393 240.722C233.724 240.419 233.997 240.079 234.203 239.712C234.41 239.344 234.558 238.935 234.645 238.494C234.857 237.406 234.687 236.539 234.139 235.915ZM232.319 238.267C232.202 238.862 231.983 239.287 231.667 239.529C231.345 239.775 230.83 239.9 230.138 239.9H229.309L229.908 236.835H230.979C231.766 236.835 232.083 237.002 232.211 237.142C232.387 237.336 232.424 237.726 232.319 238.267Z" fill="white"/>
<path fill-rule="evenodd" clip-rule="evenodd" d="M216.335 236.582C217.045 236.582 217.519 236.712 217.756 236.973C217.992 237.233 218.048 237.681 217.925 238.315C217.795 238.976 217.546 239.447 217.177 239.729C216.809 240.012 216.247 240.153 215.494 240.153H214.356L215.054 236.582H216.335ZM211.781 243.768H213.65L214.094 241.5H215.695C216.401 241.5 216.982 241.426 217.439 241.278C217.895 241.131 218.31 240.883 218.683 240.536C218.996 240.25 219.25 239.934 219.444 239.588C219.638 239.243 219.775 238.862 219.857 238.445C220.055 237.434 219.905 236.646 219.409 236.082C218.914 235.517 218.125 235.235 217.043 235.235H213.449L211.781 243.768ZM221.23 232.966H223.084L222.641 235.235H224.293C225.333 235.235 226.05 235.415 226.445 235.776C226.839 236.136 226.957 236.721 226.8 237.529L226.024 241.5H224.14L224.877 237.724C224.961 237.294 224.93 237.001 224.785 236.845C224.639 236.689 224.328 236.611 223.854 236.611H222.372L221.416 241.5H219.562L221.23 232.966ZM230.926 236.582C231.636 236.582 232.11 236.712 232.346 236.973C232.583 237.233 232.639 237.681 232.515 238.315C232.386 238.976 232.137 239.447 231.768 239.729C231.4 240.012 230.838 240.153 230.085 240.153H228.948L229.645 236.582H230.926ZM226.371 243.768H228.241L228.684 241.5H230.285C230.992 241.5 231.573 241.426 232.029 241.278C232.486 241.131 232.9 240.883 233.274 240.536C233.587 240.25 233.84 239.934 234.034 239.588C234.228 239.243 234.366 238.862 234.448 238.445C234.645 237.434 234.496 236.646 234 236.082C233.504 235.517 232.715 235.235 231.634 235.235H228.039L226.371 243.768Z" fill="black"/>
<rect x="265.313" y="211" width="56.3129" height="56" rx="16" fill="white"/>
<path d="M308.724 228.049L294.297 254.149C293.999 254.688 293.234 254.691 292.931 254.155L278.218 228.052C277.888 227.467 278.382 226.759 279.037 226.878L293.48 229.489C293.572 229.506 293.666 229.506 293.758 229.489L307.899 226.881C308.552 226.761 309.048 227.464 308.724 228.049Z" fill="url(#paint0_linear_27_648)"/>
<path d="M300.36 223.452L289.683 225.569C289.598 225.585 289.52 225.631 289.463 225.697C289.406 225.763 289.372 225.847 289.367 225.934L288.71 237.156C288.707 237.218 288.717 237.279 288.741 237.336C288.765 237.393 288.802 237.443 288.848 237.483C288.895 237.523 288.95 237.551 289.009 237.565C289.069 237.58 289.13 237.58 289.19 237.566L292.162 236.872C292.44 236.807 292.692 237.055 292.635 237.338L291.751 241.713C291.692 242.008 291.965 242.259 292.249 242.172L294.085 241.608C294.37 241.52 294.644 241.773 294.583 242.068L293.18 248.94C293.092 249.37 293.657 249.604 293.893 249.236L294.05 248.99L302.75 231.424C302.896 231.13 302.645 230.795 302.326 230.857L299.266 231.455C298.978 231.511 298.734 231.24 298.815 230.955L300.812 223.951C300.893 223.666 300.648 223.395 300.36 223.452H300.36Z" fill="url(#paint1_linear_27_648)"/>
<g filter="url(#filter3_d_27_648)">
<rect x="335.507" y="210.907" width="56" height="56" rx="16" fill="white"/>
<rect x="336.007" y="211.407" width="55" height="55" rx="15.5" stroke="white"/>
</g>
<path d="M374.859 240.747C373.774 240.752 372.831 241.014 372.041 241.4C371.751 240.826 371.461 240.315 371.41 239.94C371.353 239.502 371.285 239.235 371.353 238.712C371.421 238.189 371.728 237.445 371.723 237.388C371.717 237.331 371.654 237.064 371.029 237.059C370.404 237.053 369.864 237.178 369.802 237.343C369.739 237.508 369.62 237.883 369.54 238.269C369.432 238.837 368.29 240.866 367.637 241.929C367.426 241.514 367.245 241.15 367.205 240.86C367.148 240.423 367.08 240.156 367.148 239.633C367.216 239.11 367.523 238.366 367.517 238.309C367.512 238.252 367.449 237.985 366.824 237.979C366.199 237.973 365.659 238.099 365.597 238.263C365.534 238.428 365.466 238.815 365.335 239.19C365.205 239.565 363.687 242.951 363.29 243.827C363.085 244.275 362.909 244.633 362.784 244.878C362.784 244.878 362.778 244.895 362.761 244.923C362.653 245.134 362.591 245.247 362.591 245.247C362.591 245.247 362.591 245.247 362.591 245.253C362.505 245.406 362.414 245.548 362.369 245.548C362.335 245.548 362.272 245.139 362.38 244.582C362.608 243.406 363.148 241.576 363.142 241.514C363.142 241.48 363.244 241.161 362.79 240.997C362.346 240.832 362.187 241.105 362.147 241.105C362.108 241.105 362.079 241.201 362.079 241.201C362.079 241.201 362.574 239.144 361.136 239.144C360.238 239.144 358.999 240.127 358.386 241.014C357.999 241.224 357.175 241.673 356.294 242.156C355.959 242.343 355.612 242.531 355.289 242.707C355.266 242.684 355.243 242.656 355.22 242.633C353.481 240.775 350.265 239.462 350.402 236.968C350.453 236.058 350.765 233.672 356.578 230.774C361.363 228.415 365.171 229.069 365.83 230.518C366.773 232.586 363.79 236.428 358.846 236.985C356.959 237.195 355.97 236.468 355.72 236.195C355.459 235.911 355.419 235.894 355.323 235.95C355.164 236.036 355.266 236.291 355.323 236.439C355.47 236.826 356.078 237.508 357.107 237.843C358.016 238.138 360.227 238.303 362.903 237.269C365.898 236.11 368.239 232.888 367.552 230.188C366.864 227.449 362.318 226.546 358.016 228.074C355.459 228.984 352.686 230.416 350.691 232.28C348.322 234.496 347.947 236.422 348.1 237.229C348.651 240.093 352.601 241.957 354.18 243.338C354.101 243.383 354.027 243.423 353.964 243.457C353.175 243.849 350.163 245.423 349.413 247.088C348.56 248.975 349.549 250.327 350.203 250.509C352.231 251.072 354.317 250.06 355.436 248.39C356.556 246.719 356.419 244.548 355.902 243.554C355.897 243.542 355.891 243.531 355.88 243.52C356.084 243.4 356.294 243.275 356.499 243.156C356.902 242.917 357.3 242.696 357.641 242.514C357.448 243.042 357.306 243.673 357.238 244.582C357.152 245.651 357.59 247.037 358.164 247.583C358.42 247.821 358.721 247.827 358.914 247.827C359.585 247.827 359.886 247.27 360.221 246.611C360.63 245.804 361 244.866 361 244.866C361 244.866 360.539 247.401 361.789 247.401C362.244 247.401 362.704 246.81 362.909 246.509C362.909 246.514 362.909 246.514 362.909 246.514C362.909 246.514 362.92 246.497 362.943 246.458C362.988 246.384 363.017 246.338 363.017 246.338C363.017 246.338 363.017 246.333 363.017 246.327C363.199 246.009 363.608 245.287 364.216 244.088C365 242.542 365.756 240.61 365.756 240.61C365.756 240.61 365.824 241.082 366.057 241.866C366.193 242.326 366.478 242.832 366.705 243.321C366.523 243.576 366.409 243.719 366.409 243.719C366.409 243.719 366.409 243.719 366.415 243.724C366.267 243.917 366.108 244.128 365.932 244.332C365.313 245.071 364.574 245.918 364.472 246.162C364.352 246.452 364.381 246.662 364.608 246.833C364.773 246.958 365.068 246.975 365.369 246.958C365.926 246.918 366.318 246.781 366.512 246.696C366.813 246.588 367.165 246.423 367.495 246.179C368.103 245.73 368.472 245.088 368.438 244.241C368.421 243.775 368.268 243.309 368.08 242.872C368.137 242.792 368.188 242.713 368.245 242.633C369.205 241.23 369.95 239.69 369.95 239.69C369.95 239.69 370.018 240.161 370.251 240.945C370.364 241.343 370.597 241.775 370.802 242.196C369.898 242.929 369.342 243.781 369.143 244.338C368.785 245.372 369.063 245.838 369.592 245.946C369.83 245.997 370.171 245.884 370.421 245.776C370.739 245.673 371.114 245.497 371.472 245.236C372.081 244.787 372.666 244.162 372.632 243.315C372.615 242.929 372.512 242.548 372.37 242.179C373.137 241.86 374.126 241.684 375.388 241.832C378.093 242.15 378.627 243.838 378.525 244.548C378.422 245.259 377.854 245.645 377.666 245.764C377.479 245.884 377.416 245.923 377.433 246.009C377.456 246.134 377.547 246.128 377.706 246.105C377.928 246.065 379.127 245.531 379.178 244.224C379.263 242.554 377.672 240.73 374.859 240.747ZM353.993 247.782C353.095 248.759 351.845 249.128 351.305 248.816C350.725 248.481 350.953 247.037 352.055 246.003C352.726 245.372 353.589 244.787 354.163 244.429C354.294 244.349 354.487 244.236 354.72 244.094C354.76 244.071 354.783 244.06 354.783 244.06C354.828 244.031 354.874 244.003 354.919 243.974C355.323 245.452 354.936 246.753 353.993 247.782ZM360.528 243.338C360.215 244.099 359.562 246.048 359.164 245.94C358.823 245.85 358.613 244.372 359.096 242.912C359.34 242.179 359.857 241.303 360.158 240.963C360.647 240.417 361.187 240.235 361.318 240.457C361.483 240.747 360.721 242.86 360.528 243.338ZM365.921 245.918C365.79 245.986 365.665 246.031 365.608 245.997C365.568 245.975 365.665 245.884 365.665 245.884C365.665 245.884 366.341 245.156 366.608 244.827C366.762 244.633 366.943 244.406 367.137 244.15C367.137 244.173 367.137 244.202 367.137 244.224C367.137 245.094 366.296 245.679 365.921 245.918ZM370.08 244.969C369.984 244.901 370.001 244.673 370.325 243.963C370.45 243.684 370.745 243.218 371.251 242.77C371.308 242.951 371.347 243.128 371.342 243.292C371.336 244.389 370.552 244.798 370.08 244.969Z" fill="#CD6799"/>
<g filter="url(#filter4_d_27_648)">
<rect x="405.626" y="211" width="55" height="55" rx="16" fill="white"/>
<rect x="406.126" y="211.5" width="54" height="54" rx="15.5" stroke="white"/>
</g>
<path d="M432.904 230C428.829 230 426.283 232.037 425.264 236.109C426.792 234.073 428.575 233.309 430.612 233.818C431.774 234.109 432.605 234.952 433.524 235.885C435.022 237.405 436.756 239.164 440.543 239.164C444.616 239.164 447.163 237.127 448.181 233.054C446.654 235.091 444.871 235.855 442.834 235.346C441.672 235.055 440.841 234.212 439.922 233.279C438.424 231.759 436.69 230 432.904 230ZM425.264 239.164C421.191 239.164 418.644 241.201 417.626 245.274C419.153 243.237 420.936 242.473 422.973 242.983C424.135 243.273 424.966 244.116 425.885 245.049C427.383 246.569 429.117 248.328 432.904 248.328C436.978 248.328 439.524 246.292 440.543 242.219C439.015 244.255 437.232 245.019 435.195 244.51C434.033 244.22 433.202 243.376 432.283 242.443C430.785 240.923 429.051 239.164 425.264 239.164Z" fill="#06B6D4"/>
<rect x="120.344" y="286" width="56.3129" height="56" rx="16" fill="white"/>
<path d="M160.88 304.492C158.989 302.057 156.414 300.234 153.482 299.255C150.549 298.275 147.39 298.182 144.404 298.987C141.418 299.793 138.739 301.461 136.706 303.781C134.674 306.101 133.379 308.968 132.985 312.019C132.591 315.071 133.116 318.171 134.493 320.926C135.871 323.681 138.039 325.967 140.724 327.497C143.408 329.027 146.488 329.73 149.575 329.519C152.662 329.307 155.616 328.19 158.064 326.309C164.898 321.057 166.159 311.291 160.88 304.492H160.88Z" fill="#FF6C37"/>
<path d="M153.776 308.356L147.18 314.967L145.316 313.061C151.808 306.606 152.459 307.189 153.776 308.356H153.776Z" fill="white"/>
<path d="M147.18 315.148C147.122 315.146 147.066 315.123 147.024 315.083L145.147 313.217C145.104 313.173 145.081 313.115 145.081 313.054C145.081 312.994 145.104 312.936 145.147 312.892C151.547 306.528 152.42 306.826 153.932 308.187C153.957 308.207 153.978 308.233 153.991 308.262C154.005 308.291 154.011 308.323 154.01 308.355C154.02 308.419 153.996 308.483 153.945 308.524L147.35 315.084C147.303 315.126 147.243 315.149 147.18 315.148V315.148ZM145.642 313.061L147.18 314.591L153.437 308.369C153.221 308.099 152.913 307.919 152.571 307.861C152.23 307.804 151.879 307.874 151.586 308.057C150.452 308.563 148.627 310.105 145.642 313.061Z" fill="#FF6C37"/>
<path d="M149.07 316.795L147.271 314.967L153.867 308.485C155.64 310.21 153.007 313.087 149.07 316.794V316.795Z" fill="white"/>
<path d="M149.07 317.028C149.013 317.024 148.958 317.001 148.914 316.963L147.076 315.175C147.048 315.108 147.048 315.034 147.076 314.967C147.056 314.912 147.056 314.853 147.076 314.798L153.672 308.239C153.718 308.196 153.778 308.173 153.841 308.173C153.904 308.173 153.965 308.196 154.01 308.239C154.224 308.435 154.393 308.674 154.505 308.94C154.618 309.206 154.671 309.493 154.662 309.782C154.662 311.532 152.654 313.735 149.24 316.95C149.194 316.995 149.134 317.023 149.07 317.028H149.07ZM147.61 314.967L149.083 316.431C151.69 313.981 154.18 311.453 154.193 309.742C154.207 309.38 154.086 309.024 153.854 308.744L147.61 314.967Z" fill="#FF6C37"/>
<path d="M145.368 313.1L146.672 314.397C146.68 314.404 146.687 314.413 146.691 314.423C146.696 314.433 146.698 314.444 146.698 314.455C146.698 314.466 146.696 314.477 146.691 314.487C146.687 314.497 146.68 314.506 146.672 314.514L143.921 315.097C143.866 315.109 143.808 315.102 143.756 315.079C143.705 315.055 143.662 315.015 143.636 314.965C143.609 314.915 143.6 314.858 143.609 314.802C143.618 314.746 143.645 314.695 143.686 314.656L145.29 313.075C145.29 313.075 145.342 313.075 145.368 313.1Z" fill="white"/>
<path d="M143.856 315.356C143.769 315.355 143.684 315.332 143.609 315.288C143.533 315.245 143.47 315.184 143.426 315.109C143.376 315.015 143.358 314.908 143.374 314.803C143.391 314.698 143.441 314.601 143.517 314.526L145.107 312.932C145.165 312.881 145.239 312.853 145.316 312.853C145.393 312.853 145.467 312.881 145.524 312.932L146.828 314.228C146.905 314.301 146.936 314.411 146.906 314.513C146.877 314.616 146.791 314.697 146.685 314.721L143.934 315.304L143.856 315.356ZM145.316 313.386L143.843 314.85L146.281 314.332L145.316 313.386Z" fill="#FF6C37"/>
<path d="M157.283 304.713C156.339 303.808 154.857 303.77 153.868 304.624C152.878 305.478 152.709 306.944 153.479 307.999C154.25 309.054 155.702 309.35 156.826 308.68L155.054 306.917L157.283 304.713Z" fill="white"/>
<path d="M155.523 309.276C154.981 309.269 154.453 309.103 154.005 308.8C153.556 308.497 153.208 308.069 153.002 307.57C152.797 307.072 152.743 306.525 152.848 305.996C152.952 305.467 153.21 304.981 153.589 304.596C154.111 304.087 154.813 303.802 155.544 303.802C156.276 303.802 156.978 304.087 157.5 304.596C157.55 304.638 157.578 304.7 157.578 304.765C157.578 304.797 157.571 304.829 157.557 304.858C157.544 304.887 157.524 304.913 157.5 304.934L155.388 306.917L156.991 308.486C157.017 308.51 157.037 308.541 157.048 308.575C157.059 308.609 157.062 308.645 157.056 308.68C157.052 308.714 157.041 308.747 157.023 308.776C157.005 308.805 156.981 308.83 156.952 308.849C156.521 309.117 156.026 309.264 155.518 309.277L155.523 309.276ZM155.523 304.246C154.594 304.251 153.763 304.806 153.415 305.656C153.066 306.505 153.256 307.482 153.907 308.135C154.231 308.459 154.645 308.678 155.097 308.763C155.548 308.849 156.014 308.797 156.435 308.615L154.897 307.085C154.873 307.065 154.853 307.041 154.839 307.013C154.826 306.985 154.819 306.954 154.819 306.923C154.819 306.892 154.826 306.861 154.839 306.833C154.853 306.805 154.873 306.78 154.897 306.761L156.931 304.725C156.526 304.417 156.032 304.249 155.523 304.245V304.246Z" fill="#FF6C37"/>
<path d="M157.322 304.752L155.093 306.955L156.866 308.719C157.044 308.617 157.21 308.495 157.361 308.355C157.825 307.867 158.081 307.218 158.074 306.546C158.067 305.874 157.797 305.23 157.322 304.752Z" fill="white"/>
<path d="M156.826 308.913C156.797 308.915 156.767 308.91 156.74 308.899C156.713 308.887 156.689 308.87 156.67 308.849L154.897 307.085C154.872 307.066 154.852 307.041 154.839 307.013C154.825 306.985 154.818 306.954 154.818 306.923C154.818 306.892 154.825 306.861 154.839 306.833C154.852 306.805 154.872 306.781 154.897 306.761L157.112 304.597C157.134 304.564 157.163 304.538 157.197 304.52C157.231 304.502 157.269 304.492 157.308 304.492C157.347 304.492 157.385 304.502 157.419 304.52C157.453 304.538 157.482 304.564 157.504 304.597C157.764 304.85 157.97 305.153 158.111 305.486C158.252 305.82 158.325 306.179 158.325 306.541C158.325 306.903 158.252 307.262 158.111 307.596C157.97 307.929 157.764 308.232 157.504 308.485C157.35 308.647 157.174 308.787 156.982 308.9C156.933 308.924 156.877 308.929 156.826 308.913H156.826ZM155.392 306.917L156.865 308.382C156.966 308.311 157.062 308.233 157.152 308.149C157.585 307.719 157.829 307.136 157.83 306.528C157.831 305.984 157.632 305.458 157.269 305.051L155.392 306.917Z" fill="#FF6C37"/>
<path d="M154.049 308.628C153.873 308.463 153.64 308.372 153.398 308.372C153.155 308.372 152.922 308.463 152.746 308.628L146.841 314.487L147.819 315.472L154.063 310.028C154.158 309.937 154.233 309.828 154.285 309.707C154.336 309.586 154.362 309.456 154.36 309.325C154.359 309.194 154.331 309.064 154.277 308.944C154.224 308.824 154.146 308.717 154.049 308.628V308.628Z" fill="white"/>
<path d="M147.767 315.706C147.708 315.705 147.652 315.682 147.61 315.641L146.619 314.656C146.577 314.612 146.554 314.554 146.554 314.494C146.554 314.433 146.577 314.375 146.619 314.332L152.524 308.485C152.694 308.316 152.912 308.202 153.148 308.158C153.384 308.113 153.628 308.14 153.849 308.235C154.069 308.33 154.256 308.488 154.385 308.69C154.514 308.892 154.579 309.128 154.571 309.367C154.564 309.529 154.525 309.688 154.456 309.835C154.386 309.982 154.288 310.114 154.167 310.222L147.923 315.667C147.878 315.699 147.822 315.712 147.767 315.706V315.706ZM147.076 314.487L147.728 315.148L153.854 309.846C154.006 309.715 154.096 309.527 154.102 309.327C154.108 309.128 154.028 308.932 153.88 308.796C153.744 308.661 153.558 308.584 153.365 308.584C153.172 308.584 152.987 308.661 152.85 308.796L147.076 314.487Z" fill="#FF6C37"/>
<path d="M142.266 321.163C142.249 321.186 142.24 321.213 142.24 321.241C142.24 321.269 142.249 321.296 142.266 321.319L142.526 322.446C142.537 322.513 142.527 322.581 142.498 322.641C142.469 322.702 142.422 322.753 142.364 322.787C142.306 322.82 142.239 322.835 142.172 322.828C142.105 322.821 142.042 322.794 141.992 322.749L140.206 321.038L145.772 315.459H147.702L149.005 316.755C146.972 318.524 144.704 320.007 142.266 321.163Z" fill="white"/>
<path d="M142.149 323.069C142.001 323.066 141.855 323.005 141.758 322.9L140.05 321.202C140.026 321.183 140.006 321.158 139.992 321.13C139.979 321.102 139.972 321.071 139.972 321.04C139.972 321.009 139.979 320.978 139.992 320.95C140.006 320.922 140.026 320.897 140.05 320.878L145.655 315.291C145.686 315.258 145.727 315.235 145.772 315.226H147.714C147.765 315.208 147.82 315.208 147.871 315.226L149.174 316.523C149.199 316.545 149.218 316.574 149.229 316.605C149.241 316.637 149.244 316.671 149.239 316.704C149.24 316.736 149.234 316.768 149.22 316.797C149.207 316.827 149.187 316.852 149.161 316.873L149.057 316.964C147.015 318.656 144.769 320.089 142.37 321.228L142.618 322.278C142.637 322.359 142.638 322.443 142.62 322.525C142.602 322.606 142.567 322.682 142.515 322.748C142.464 322.814 142.399 322.868 142.324 322.905C142.249 322.943 142.167 322.963 142.084 322.965L142.149 323.069ZM140.558 321.033L142.096 322.576C142.111 322.588 142.129 322.595 142.148 322.595C142.168 322.595 142.186 322.588 142.2 322.576C142.21 322.562 142.215 322.547 142.215 322.53C142.215 322.514 142.21 322.498 142.2 322.485L141.94 321.357C141.919 321.276 141.928 321.191 141.963 321.115C141.999 321.039 142.06 320.978 142.135 320.942C144.47 319.818 146.658 318.417 148.653 316.768L147.584 315.705H145.837L140.558 321.033Z" fill="#FF6C37"/>
<path d="M138.864 322.368L140.167 321.072L142.175 323.068L138.982 322.848C138.927 322.844 138.875 322.823 138.833 322.787C138.791 322.752 138.761 322.704 138.748 322.651C138.735 322.598 138.74 322.542 138.76 322.491C138.781 322.441 138.817 322.398 138.864 322.369L138.864 322.368Z" fill="white"/>
<path d="M142.214 323.263L139.033 323.043C138.844 323.025 138.682 322.897 138.615 322.725C138.549 322.554 138.59 322.35 138.72 322.213L140.024 320.917C140.067 320.875 140.126 320.851 140.187 320.851C140.248 320.851 140.306 320.875 140.35 320.917L142.344 322.9C142.372 322.938 142.387 322.983 142.387 323.029C142.387 323.076 142.372 323.121 142.344 323.159C142.314 323.207 142.268 323.244 142.214 323.263V323.263ZM139.033 322.537L141.64 322.706L140.206 321.371L139.033 322.537Z" fill="#FF6C37"/>
<path d="M147.884 315.615L145.251 316.017L146.776 314.514L147.884 315.615Z" fill="white"/>
<path d="M145.251 316.263C145.207 316.264 145.164 316.252 145.127 316.229C145.09 316.206 145.06 316.173 145.042 316.133C145.014 316.096 144.999 316.05 144.999 316.004C144.999 315.957 145.014 315.912 145.042 315.874L146.554 314.357C146.6 314.315 146.66 314.291 146.723 314.291C146.786 314.291 146.847 314.315 146.893 314.357L148.001 315.459C148.023 315.494 148.035 315.534 148.035 315.576C148.035 315.617 148.023 315.657 148.001 315.692C147.99 315.735 147.967 315.773 147.935 315.803C147.903 315.833 147.862 315.853 147.819 315.861L145.212 316.263H145.251ZM146.776 314.85L145.929 315.692L147.389 315.472L146.776 314.85Z" fill="#FF6C37"/>
<path d="M147.884 315.614L146.046 315.848C145.997 315.859 145.945 315.854 145.899 315.834C145.853 315.813 145.815 315.779 145.79 315.735C145.765 315.692 145.755 315.641 145.761 315.591C145.767 315.542 145.79 315.495 145.825 315.459L146.776 314.512L147.884 315.614Z" fill="white"/>
<path d="M145.994 316.095C145.909 316.094 145.825 316.071 145.752 316.028C145.679 315.984 145.618 315.922 145.577 315.848C145.527 315.76 145.508 315.657 145.522 315.557C145.536 315.456 145.583 315.363 145.655 315.291L146.607 314.344C146.653 314.302 146.713 314.278 146.776 314.278C146.839 314.278 146.9 314.302 146.945 314.344L148.054 315.446C148.087 315.477 148.11 315.517 148.12 315.561C148.131 315.605 148.129 315.651 148.113 315.694C148.098 315.736 148.071 315.774 148.035 315.801C147.999 315.828 147.956 315.845 147.91 315.848L146.086 316.082L145.994 316.095ZM145.994 315.615L147.376 315.446L146.763 314.837L145.981 315.615H145.994ZM157.334 306.243C157.31 306.202 157.271 306.172 157.225 306.157C157.18 306.143 157.13 306.146 157.087 306.165C157.065 306.176 157.046 306.191 157.03 306.209C157.015 306.228 157.003 306.249 156.996 306.272C156.981 306.318 156.986 306.369 157.008 306.412C157.1 306.603 157.074 306.829 156.943 306.995C156.927 307.011 156.914 307.03 156.906 307.051C156.897 307.073 156.894 307.095 156.894 307.118C156.895 307.164 156.912 307.207 156.943 307.241C156.977 307.254 157.014 307.254 157.047 307.241C157.078 307.249 157.11 307.248 157.14 307.239C157.169 307.229 157.196 307.212 157.217 307.189C157.324 307.058 157.392 306.9 157.413 306.733C157.434 306.565 157.407 306.395 157.334 306.242V306.243Z" fill="#FF6C37"/>
<rect x="190.656" y="286" width="56" height="56" rx="16" fill="white"/>
<path d="M213.471 329.555C216.333 329.555 218.656 327.232 218.656 324.37V319.185H213.471C210.609 319.185 208.286 321.508 208.286 324.37C208.286 327.232 210.609 329.555 213.471 329.555Z" fill="#0ACF83"/>
<path d="M208.286 314C208.286 311.138 210.609 308.815 213.471 308.815H218.656V319.185H213.471C210.609 319.185 208.286 316.862 208.286 314Z" fill="#A259FF"/>
<path d="M208.286 303.63C208.286 300.767 210.609 298.444 213.471 298.444H218.656V308.815H213.471C210.609 308.815 208.286 306.492 208.286 303.63Z" fill="#F24E1E"/>
<path d="M218.656 298.444H223.842C226.704 298.444 229.027 300.767 229.027 303.63C229.027 306.492 226.704 308.815 223.842 308.815H218.656V298.444Z" fill="#FF7262"/>
<path d="M229.027 314C229.027 316.862 226.704 319.185 223.842 319.185C220.979 319.185 218.656 316.862 218.656 314C218.656 311.138 220.979 308.815 223.842 308.815C226.704 308.815 229.027 311.138 229.027 314Z" fill="#1ABCFE"/>
<rect x="260.656" y="286" width="56.3129" height="56" rx="16" fill="white"/>
<path d="M273.17 315.122V301.651L284.902 308.387V312.877L277.081 308.387V317.368L273.17 315.122Z" fill="#00B0FF"/>
<path d="M284.902 308.387L296.634 301.651V315.122L288.813 319.613L284.902 317.368L292.724 312.877V308.387L284.902 312.877V308.387Z" fill="#0081CB"/>
<path d="M284.902 317.368V321.858L292.724 326.348V321.858L284.902 317.368Z" fill="#00B0FF"/>
<path d="M292.724 326.348L304.455 319.613V310.632L300.545 312.877V317.368L292.724 321.858V326.348ZM300.545 308.387V303.897L304.455 301.651V306.142L300.545 308.387Z" fill="#0081CB"/>
<rect x="330.969" y="286" width="56" height="56" rx="16" fill="white"/>
<path d="M366.311 317.759L367.209 315.486H369.805L368.573 312.038L370.113 308.143L374.525 319.857H371.271L370.517 317.759H366.311Z" fill="#3D3D3D"/>
<path d="M363.535 319.857L368.258 308.144H365.127L361.896 315.713L359.599 308.144H357.192L354.725 315.713L352.986 312.264L351.412 317.114L353.01 319.857H356.091L358.32 313.069L360.446 319.857H363.535Z" fill="#5A0FC8"/>
<path d="M346.386 315.836H348.314C348.898 315.836 349.419 315.771 349.875 315.64L350.374 314.104L351.768 309.809C351.661 309.641 351.54 309.482 351.404 309.332C350.688 308.539 349.641 308.143 348.262 308.143H343.414V319.857H346.386V315.836ZM348.939 310.838C349.218 311.119 349.358 311.496 349.358 311.968C349.358 312.443 349.235 312.82 348.989 313.099C348.719 313.408 348.223 313.563 347.5 313.563H346.386V310.416H347.508C348.182 310.416 348.659 310.557 348.939 310.838Z" fill="#3D3D3D"/>
<rect x="400.969" y="286" width="56.3129" height="56" rx="16" fill="white"/>
<path d="M429.126 298.828C420.488 298.828 413.483 305.793 413.483 314.384C413.483 321.257 417.965 327.088 424.181 329.145C424.962 329.289 425.249 328.807 425.249 328.396C425.249 328.026 425.235 326.8 425.228 325.5C420.876 326.441 419.958 323.665 419.958 323.665C419.246 321.867 418.221 321.389 418.221 321.389C416.802 320.423 418.328 320.443 418.328 320.443C419.899 320.553 420.726 322.046 420.726 322.046C422.121 324.424 424.385 323.737 425.278 323.339C425.418 322.334 425.824 321.648 426.271 321.259C422.797 320.866 419.144 319.532 419.144 313.572C419.144 311.873 419.755 310.486 420.756 309.396C420.594 309.004 420.058 307.422 420.908 305.28C420.908 305.28 422.221 304.862 425.21 306.874C426.458 306.529 427.796 306.357 429.126 306.351C430.455 306.357 431.794 306.529 433.044 306.874C436.03 304.862 437.342 305.28 437.342 305.28C438.193 307.422 437.658 309.004 437.495 309.396C438.498 310.486 439.105 311.873 439.105 313.572C439.105 319.546 435.446 320.862 431.962 321.247C432.523 321.73 433.023 322.676 433.023 324.128C433.023 326.209 433.005 327.884 433.005 328.396C433.005 328.81 433.287 329.295 434.08 329.143C440.292 327.083 444.768 321.255 444.768 314.384C444.768 305.793 437.765 298.828 429.126 298.828Z" fill="#161614"/>
<path d="M419.342 320.988C419.307 321.065 419.185 321.088 419.074 321.035C418.96 320.984 418.896 320.879 418.933 320.801C418.967 320.722 419.089 320.7 419.203 320.753C419.316 320.804 419.381 320.91 419.342 320.988ZM420.111 321.67C420.037 321.739 419.891 321.707 419.792 321.599C419.689 321.49 419.67 321.345 419.746 321.275C419.823 321.207 419.964 321.239 420.067 321.347C420.169 321.457 420.189 321.601 420.111 321.67L420.111 321.67ZM420.639 322.544C420.543 322.61 420.386 322.548 420.29 322.41C420.194 322.271 420.194 322.106 420.292 322.039C420.389 321.973 420.543 322.032 420.641 322.17C420.737 322.31 420.737 322.476 420.639 322.544L420.639 322.544ZM421.532 323.556C421.446 323.65 421.264 323.624 421.13 323.496C420.993 323.371 420.955 323.193 421.041 323.099C421.128 323.004 421.311 323.031 421.446 323.158C421.582 323.283 421.623 323.463 421.532 323.556H421.532ZM422.686 323.897C422.648 324.019 422.472 324.074 422.295 324.023C422.118 323.969 422.002 323.827 422.038 323.704C422.075 323.581 422.251 323.523 422.43 323.579C422.606 323.632 422.722 323.773 422.686 323.897H422.686ZM423.999 324.042C424.003 324.17 423.853 324.277 423.667 324.279C423.48 324.283 423.328 324.179 423.327 324.053C423.327 323.924 423.473 323.818 423.66 323.815C423.846 323.811 423.999 323.915 423.999 324.042ZM425.289 323.993C425.311 324.118 425.182 324.247 424.997 324.281C424.815 324.314 424.647 324.237 424.624 324.112C424.602 323.984 424.733 323.856 424.915 323.822C425.1 323.79 425.265 323.866 425.289 323.993Z" fill="#161614"/>
<rect x="119.156" y="360.5" width="56" height="56" rx="15.5" fill="url(#paint2_linear_27_648)" stroke="#212121"/>
<rect x="190.156" y="360.5" width="56" height="56" rx="15.5" fill="url(#paint3_linear_27_648)" stroke="#212121"/>
<rect x="260.656" y="360" width="56.3129" height="56" rx="16" fill="white"/>
<path d="M303.865 386.614L290.206 373.031C289.42 372.249 288.144 372.249 287.357 373.031L284.52 375.852L288.119 379.43C288.955 379.149 289.914 379.338 290.58 380C291.25 380.667 291.438 381.629 291.149 382.463L294.616 385.912C295.455 385.624 296.423 385.81 297.093 386.478C298.03 387.409 298.03 388.917 297.093 389.849C296.157 390.781 294.639 390.781 293.702 389.849C292.998 389.148 292.824 388.119 293.18 387.256L289.946 384.04L289.946 392.503C290.181 392.618 290.395 392.77 290.58 392.954C291.517 393.885 291.517 395.394 290.58 396.326C289.643 397.257 288.125 397.257 287.19 396.326C286.254 395.394 286.254 393.885 287.19 392.954C287.415 392.731 287.681 392.554 287.975 392.434V383.892C287.681 383.773 287.414 383.596 287.19 383.372C286.481 382.667 286.31 381.632 286.674 380.765L283.127 377.238L273.761 386.551C272.974 387.334 272.974 388.603 273.761 389.385L287.42 402.968C288.207 403.751 289.482 403.751 290.27 402.968L303.865 389.448C304.652 388.666 304.652 387.396 303.865 386.614" fill="#DE4C36"/>
<rect x="331.469" y="360.5" width="56" height="56" rx="15.5" fill="url(#paint4_linear_27_648)" stroke="#212121"/>
<rect x="402.469" y="360.5" width="56" height="56" rx="15.5" fill="url(#paint5_linear_27_648)" stroke="#212121"/>
<rect x="118.813" y="435.5" width="56" height="56" rx="15.5" fill="url(#paint6_linear_27_648)" stroke="#212121"/>
<rect x="189.813" y="435.5" width="56" height="56" rx="15.5" fill="url(#paint7_linear_27_648)" stroke="#212121"/>
<rect x="260.813" y="435.5" width="56" height="56" rx="15.5" fill="url(#paint8_linear_27_648)" stroke="#212121"/>
<rect x="331.813" y="435.5" width="56" height="56" rx="15.5" fill="url(#paint9_linear_27_648)" stroke="#212121"/>
<rect x="402.813" y="435.5" width="56" height="56" rx="15.5" fill="url(#paint10_linear_27_648)" stroke="#212121"/>
<defs>
<filter id="filter0_d_27_648" x="0" y="0" width="583" height="623" filterUnits="userSpaceOnUse" color-interpolation-filters="sRGB">
<feFlood flood-opacity="0" result="BackgroundImageFix"/>
<feColorMatrix in="SourceAlpha" type="matrix" values="0 0 0 0 0 0 0 0 0 0 0 0 0 0 0 0 0 0 127 0" result="hardAlpha"/>
<feMorphology radius="30" operator="dilate" in="SourceAlpha" result="effect1_dropShadow_27_648"/>
<feOffset dy="4"/>
<feGaussianBlur stdDeviation="24.5"/>
<feComposite in2="hardAlpha" operator="out"/>
<feColorMatrix type="matrix" values="0 0 0 0 0 0 0 0 0 0 0 0 0 0 0 0 0 0 0.25 0"/>
<feBlend mode="normal" in2="BackgroundImageFix" result="effect1_dropShadow_27_648"/>
<feBlend mode="normal" in="SourceGraphic" in2="effect1_dropShadow_27_648" result="shape"/>
</filter>
<filter id="filter1_d_27_648" x="80.187" y="101.406" width="136" height="136" filterUnits="userSpaceOnUse" color-interpolation-filters="sRGB">
<feFlood flood-opacity="0" result="BackgroundImageFix"/>
<feColorMatrix in="SourceAlpha" type="matrix" values="0 0 0 0 0 0 0 0 0 0 0 0 0 0 0 0 0 0 127 0" result="hardAlpha"/>
<feOffset dy="4"/>
<feGaussianBlur stdDeviation="20"/>
<feComposite in2="hardAlpha" operator="out"/>
<feColorMatrix type="matrix" values="0 0 0 0 0.0367917 0 0 0 0 0.0348958 0 0 0 0 0.0484375 0 0 0 0.1 0"/>
<feBlend mode="normal" in2="BackgroundImageFix" result="effect1_dropShadow_27_648"/>
<feBlend mode="normal" in="SourceGraphic" in2="effect1_dropShadow_27_648" result="shape"/>
</filter>
<filter id="filter2_d_27_648" x="360.749" y="100.909" width="137" height="135" filterUnits="userSpaceOnUse" color-interpolation-filters="sRGB">
<feFlood flood-opacity="0" result="BackgroundImageFix"/>
<feColorMatrix in="SourceAlpha" type="matrix" values="0 0 0 0 0 0 0 0 0 0 0 0 0 0 0 0 0 0 127 0" result="hardAlpha"/>
<feOffset dy="4"/>
<feGaussianBlur stdDeviation="20"/>
<feComposite in2="hardAlpha" operator="out"/>
<feColorMatrix type="matrix" values="0 0 0 0 0.0367917 0 0 0 0 0.0348958 0 0 0 0 0.0484375 0 0 0 0.1 0"/>
<feBlend mode="normal" in2="BackgroundImageFix" result="effect1_dropShadow_27_648"/>
<feBlend mode="normal" in="SourceGraphic" in2="effect1_dropShadow_27_648" result="shape"/>
</filter>
<filter id="filter3_d_27_648" x="295.507" y="174.907" width="136" height="136" filterUnits="userSpaceOnUse" color-interpolation-filters="sRGB">
<feFlood flood-opacity="0" result="BackgroundImageFix"/>
<feColorMatrix in="SourceAlpha" type="matrix" values="0 0 0 0 0 0 0 0 0 0 0 0 0 0 0 0 0 0 127 0" result="hardAlpha"/>
<feOffset dy="4"/>
<feGaussianBlur stdDeviation="20"/>
<feComposite in2="hardAlpha" operator="out"/>
<feColorMatrix type="matrix" values="0 0 0 0 0.0367917 0 0 0 0 0.0348958 0 0 0 0 0.0484375 0 0 0 0.1 0"/>
<feBlend mode="normal" in2="BackgroundImageFix" result="effect1_dropShadow_27_648"/>
<feBlend mode="normal" in="SourceGraphic" in2="effect1_dropShadow_27_648" result="shape"/>
</filter>
<filter id="filter4_d_27_648" x="365.626" y="175" width="135" height="135" filterUnits="userSpaceOnUse" color-interpolation-filters="sRGB">
<feFlood flood-opacity="0" result="BackgroundImageFix"/>
<feColorMatrix in="SourceAlpha" type="matrix" values="0 0 0 0 0 0 0 0 0 0 0 0 0 0 0 0 0 0 127 0" result="hardAlpha"/>
<feOffset dy="4"/>
<feGaussianBlur stdDeviation="20"/>
<feComposite in2="hardAlpha" operator="out"/>
<feColorMatrix type="matrix" values="0 0 0 0 0.0367917 0 0 0 0 0.0348958 0 0 0 0 0.0484375 0 0 0 0.1 0"/>
<feBlend mode="normal" in2="BackgroundImageFix" result="effect1_dropShadow_27_648"/>
<feBlend mode="normal" in="SourceGraphic" in2="effect1_dropShadow_27_648" result="shape"/>
</filter>
<linearGradient id="paint0_linear_27_648" x1="277.858" y1="228.984" x2="293.654" y2="250.187" gradientUnits="userSpaceOnUse">
<stop stop-color="#41D1FF"/>
<stop offset="1" stop-color="#BD34FE"/>
</linearGradient>
<linearGradient id="paint1_linear_27_648" x1="294.818" y1="224.027" x2="298.093" y2="246.23" gradientUnits="userSpaceOnUse">
<stop stop-color="#FFEA83"/>
<stop offset="0.083" stop-color="#FFDD35"/>
<stop offset="1" stop-color="#FFA800"/>
</linearGradient>
<linearGradient id="paint2_linear_27_648" x1="130.993" y1="403.806" x2="175.854" y2="344.694" gradientUnits="userSpaceOnUse">
<stop stop-color="#161616"/>
<stop offset="1" stop-color="#212121"/>
</linearGradient>
<linearGradient id="paint3_linear_27_648" x1="201.993" y1="403.806" x2="246.854" y2="344.694" gradientUnits="userSpaceOnUse">
<stop stop-color="#161616"/>
<stop offset="1" stop-color="#212121"/>
</linearGradient>
<linearGradient id="paint4_linear_27_648" x1="343.306" y1="403.806" x2="388.167" y2="344.694" gradientUnits="userSpaceOnUse">
<stop stop-color="#161616"/>
<stop offset="1" stop-color="#212121"/>
</linearGradient>
<linearGradient id="paint5_linear_27_648" x1="414.306" y1="403.806" x2="459.167" y2="344.694" gradientUnits="userSpaceOnUse">
<stop stop-color="#161616"/>
<stop offset="1" stop-color="#212121"/>
</linearGradient>
<linearGradient id="paint6_linear_27_648" x1="130.649" y1="478.806" x2="175.51" y2="419.694" gradientUnits="userSpaceOnUse">
<stop stop-color="#161616"/>
<stop offset="1" stop-color="#212121"/>
</linearGradient>
<linearGradient id="paint7_linear_27_648" x1="201.649" y1="478.806" x2="246.51" y2="419.694" gradientUnits="userSpaceOnUse">
<stop stop-color="#161616"/>
<stop offset="1" stop-color="#212121"/>
</linearGradient>
<linearGradient id="paint8_linear_27_648" x1="272.649" y1="478.806" x2="317.51" y2="419.694" gradientUnits="userSpaceOnUse">
<stop stop-color="#161616"/>
<stop offset="1" stop-color="#212121"/>
</linearGradient>
<linearGradient id="paint9_linear_27_648" x1="343.649" y1="478.806" x2="388.51" y2="419.694" gradientUnits="userSpaceOnUse">
<stop stop-color="#161616"/>
<stop offset="1" stop-color="#212121"/>
</linearGradient>
<linearGradient id="paint10_linear_27_648" x1="414.649" y1="478.806" x2="459.51" y2="419.694" gradientUnits="userSpaceOnUse">
<stop stop-color="#161616"/>
<stop offset="1" stop-color="#212121"/>
</linearGradient>
</defs>
</svg>
